# xmcd
#
# Track frame offsets:
#	180
#	32598
#	69003
#	102435
#	135820
#	178444
#	214248
#	249273
#
# Disc length: 3828 seconds
#
# Revision: 1
# Processed by: cddbd v1.4PL0 Copyright (c) Steve Scherf et al.
# Submitted via: audiograbber 1.80.04
#
DISCID=660ef208
DTITLE=Country Slickers - Party Time Country Style
DYEAR=1900
DGENRE=
TTITLE0=Medley No 1
TTITLE1=Medley No 2
TTITLE2=Medley No 3
TTITLE3=Medley No 4
TTITLE4=Medley No 5
TTITLE5=Medley No 6
TTITLE6=Medley No 7
TTITLE7=Medley No 8
EXTD=
EXTT0=Don't Rock The Jukebox  - American Honky-Tonk Bar Association - What The 
EXTT0=Cowgirls Do - Hey Good Lookin' - Tell Me About It - This Time - I Try to 
EXTT0=think about Elvis - Mind Your Own Business
EXTT1=Gonna Get A Life - Chattahoochie - Mi Vida Loca -  No Time To Kill - Stre
EXTT1=ets of Bakersfield - Cajun Moon -  Sold (Grundy County Auction Incident)
EXTT2=XXX"s And OOO's - Kiss Me In The Car - Heart Is A Lonely Hunter - Give Me
EXTT2=One More Shot - Just Like The Weather - Where Was I -  Wild One
EXTT3=Dumas Walker - Passionate Kisses - Little Sister - Trashy Women - Honky-T
EXTT3=onk Man - Every Little Thing - Little Miss Honky-Tonk
EXTT4=It's Just A Matter Of Time - Tell me I was Dreaming - This Woman And This
EXTT4=Man -  When Love Finds You - Shame, Shame, Shame, Shame - Which Bridge T
EXTT4=o Cross, Which Bridge To Burn - Somewhere In The Vicinity Of The Heart - 
EXTT4=Two Sparrows In a Hurricane
EXTT5=Cleopatra - I Feel Lucky - Achy Breaky Heart - God Bless Texas - Who's Be
EXTT5=d Has Your boots Been Under - Boot Scootin' Boogie - Watermelon Crawl
EXTT6=9 To 5 - Somebody's Leavin' - The Most Beautiful Girl - When She Cries - 
EXTT6=Friends In Low Places - Thinking Problem - Livin' On Love
EXTT7=Mirror Mirror - Any Man Of Mine - Be My Baby Tonight - Baby Likes To Rock
EXTT7=It - Summertine Blues - Old Enough To Know Better - Dreaming With My Eye
EXTT7=s Wide Open
PLAYORDER=
